<svg width="59" height="59" viewBox="0 0 59 59" fill="none" xmlns="http://www.w3.org/2000/svg">
<path d="M54.0833 27.2383V29.5C54.0803 34.8012 52.3637 39.9594 49.1896 44.2053C46.0155 48.4512 41.5539 51.5573 36.4702 53.0604C31.3866 54.5635 25.9532 54.383 20.9805 52.5458C16.0078 50.7087 11.7622 47.3133 8.8769 42.8661C5.99157 38.4189 4.62111 33.1581 4.96991 27.8684C5.31872 22.5787 7.36809 17.5435 10.8124 13.5136C14.2567 9.4838 18.9114 6.67531 24.0823 5.50702C29.2531 4.33873 34.6631 4.87324 39.5054 7.03083M54.0833 9.83333L29.5 34.4412L22.125 27.0662" stroke="url(#paint0_linear_3_271)" stroke-width="4" stroke-linecap="round" stroke-linejoin="round"/>
<defs>
<linearGradient id="paint0_linear_3_271" x1="29.5" y1="4.90259" x2="29.5" y2="54.0693" gradientUnits="userSpaceOnUse">
<stop offset="0.158654" stop-color="#C9A987"/>
<stop offset="1" stop-color="#6C5741"/>
</linearGradient>
</defs>
</svg>
