<svg width="49" height="18" viewBox="0 0 49 18" fill="none" xmlns="http://www.w3.org/2000/svg">
<path d="M16.0324 14.2317C17.2004 14.2637 17.7604 13.6957 17.7124 12.5277C17.7604 11.3757 17.2004 10.8157 16.0324 10.8477H5.4484V14.2317H16.0324ZM5.4484 3.74373V7.15173H15.0964C16.2644 7.18373 16.8244 6.61573 16.7764 5.44773C16.8244 4.27973 16.2644 3.71173 15.0964 3.74373H5.4484ZM0.000398487 17.9277V0.0477328H16.8484C18.6404 0.0157332 19.9844 0.447733 20.8804 1.34373C21.7924 2.23973 22.2484 3.45573 22.2484 4.99173C22.2484 6.03173 22.0964 6.84773 21.7924 7.43973C21.4884 8.03173 21.0644 8.48773 20.5204 8.80773C21.3364 9.03173 21.9844 9.46373 22.4644 10.1037C22.9444 10.7277 23.1844 11.6877 23.1844 12.9837C23.1844 13.7517 23.0724 14.4477 22.8484 15.0717C22.6244 15.6797 22.2804 16.1997 21.8164 16.6317C21.3684 17.0637 20.8084 17.3997 20.1364 17.6397C19.4644 17.8637 18.6804 17.9597 17.7844 17.9277H0.000398487ZM41.2746 14.2317C42.4426 14.2637 43.0026 13.6957 42.9546 12.5277C43.0026 11.3757 42.4426 10.8157 41.2746 10.8477H30.6906V14.2317H41.2746ZM30.6906 3.74373V7.15173H40.3386C41.5066 7.18373 42.0666 6.61573 42.0186 5.44773C42.0666 4.27973 41.5066 3.71173 40.3386 3.74373H30.6906ZM25.2426 17.9277V0.0477328H42.0906C43.8826 0.0157332 45.2266 0.447733 46.1226 1.34373C47.0346 2.23973 47.4906 3.45573 47.4906 4.99173C47.4906 6.03173 47.3386 6.84773 47.0346 7.43973C46.7306 8.03173 46.3066 8.48773 45.7626 8.80773C46.5786 9.03173 47.2266 9.46373 47.7066 10.1037C48.1866 10.7277 48.4266 11.6877 48.4266 12.9837C48.4266 13.7517 48.3146 14.4477 48.0906 15.0717C47.8666 15.6797 47.5226 16.1997 47.0586 16.6317C46.6106 17.0637 46.0506 17.3997 45.3786 17.6397C44.7066 17.8637 43.9226 17.9597 43.0266 17.9277H25.2426Z" fill="#C9A987"/>
</svg>
